<svg width="96" height="96" xmlns="http://www.w3.org/2000/svg" xmlns:xlink="http://www.w3.org/1999/xlink" xml:space="preserve" overflow="hidden"><g transform="translate(-502 -283)"><path d="M552 352.2 552 357.5 548 357.5 548 352.2C545.7 351.4 544 349.2 544 346.5 544 343.2 546.7 340.5 550 340.5 553.3 340.5 556 343.2 556 346.5 556 349.1 554.3 351.3 552 352.2ZM535 315.5C535 307.2 541.7 300.5 550 300.5 558.3 300.5 565 307.2 565 315.5L565 326.6 550 325.5 535 326.6 535 315.5ZM571 327 571 315.5C571 303.9 561.6 294.5 550 294.5 538.4 294.5 529 303.9 529 315.5L529 327 522 327.5 522 365.5 550 367.5 578 365.5 578 327.5 571 327Z" fill="#FFFFFF"/></g></svg>