<svg width="96" height="96" xmlns="http://www.w3.org/2000/svg" xmlns:xlink="http://www.w3.org/1999/xlink" xml:space="preserve" overflow="hidden"><g transform="translate(-640 -312)"><path d="M704 342C704 350.837 696.837 358 688 358 679.163 358 672 350.837 672 342 672 333.163 679.163 326 688 326 696.837 326 704 333.163 704 342Z" stroke="#FFFFFF" fill="#FFFFFF"/><path d="M720 394 720 378C720 375.6 718.8 373.2 716.8 371.6 712.4 368 706.8 365.6 701.2 364 697.2 362.8 692.8 362 688 362 683.6 362 679.2 362.8 674.8 364 669.2 365.6 663.6 368.4 659.2 371.6 657.2 373.2 656 375.6 656 378L656 394 720 394Z" stroke="#FFFFFF" fill="#FFFFFF"/></g></svg>