<svg width="96" height="96" xmlns="http://www.w3.org/2000/svg" xmlns:xlink="http://www.w3.org/1999/xlink" xml:space="preserve" overflow="hidden"><g transform="translate(-583 -329)"><path d="M661 349 644 349 644 344C644 340.1 640.9 337 637 337L625 337C621.1 337 618 340.1 618 344L618 349 601 349C598.8 349 597 350.8 597 353L597 357 665 357 665 353C665 350.8 663.2 349 661 349ZM624 344C624 343.4 624.4 343 625 343L637 343C637.6 343 638 343.4 638 344L638 349 624 349 624 344Z" fill="#404040"/><path d="M603 413C603 415.2 604.8 417 607 417L655 417C657.2 417 659 415.2 659 413L659 361 603 361 603 413ZM644 367 650 367 650 411 644 411 644 367ZM628 367 634 367 634 411 628 411 628 367ZM612 367 618 367 618 411 612 411 612 367Z" fill="#404040"/></g></svg>